<?xml version="1.0" encoding="iso-8859-1"?>
<!-- Generator: Adobe Illustrator 19.0.0, SVG Export Plug-In . SVG Version: 6.00 Build 0)  -->
<svg version="1.1" id="Layer_1" xmlns="http://www.w3.org/2000/svg" xmlns:xlink="http://www.w3.org/1999/xlink" x="0px" y="0px"
	 viewBox="0 0 512 512" style="enable-background:new 0 0 512 512;" xml:space="preserve">
<path style="fill:#88878F;" d="M444.787,2.744H67.212c-9.04,0-16.369,7.329-16.369,16.369v459.421
	c0,9.04,7.329,16.369,16.369,16.369h377.577c9.04,0,16.369-7.329,16.369-16.369V19.114C461.157,10.073,453.828,2.744,444.787,2.744z
	"/>
<g>
	<path style="fill:#727178;" d="M444.787,2.744H255.276v492.16h189.512c9.04,0,16.369-7.329,16.369-16.369V19.114
		C461.157,10.073,453.828,2.744,444.787,2.744z"/>
	<path style="fill:#727178;" d="M472.956,403.99H39.043c-9.04,0-16.369,7.329-16.369,16.369v75.273
		c0,9.04,7.329,16.369,16.369,16.369h433.913c9.04,0,16.369-7.329,16.369-16.369v-75.273
		C489.325,411.317,481.996,403.99,472.956,403.99z"/>
</g>
<path style="fill:#BBDDF7;" d="M282.735,231.184h-53.472c-9.04,0-16.369,7.329-16.369,16.369v53.473
	c0,9.04,7.329,16.369,16.369,16.369h53.472c9.04,0,16.369-7.329,16.369-16.369v-53.472
	C299.104,238.513,291.776,231.184,282.735,231.184z"/>
<path style="fill:#85C6F7;" d="M404.138,231.184h-53.472c-9.04,0-16.369,7.329-16.369,16.369v53.473
	c0,9.04,7.329,16.369,16.369,16.369h53.472c9.04,0,16.369-7.329,16.369-16.369v-53.472
	C420.507,238.513,413.178,231.184,404.138,231.184z"/>
<g>
	<path style="fill:#BBDDF7;" d="M161.333,231.184h-53.472c-9.04,0-16.369,7.329-16.369,16.369v53.473
		c0,9.04,7.329,16.369,16.369,16.369h53.472c9.04,0,16.369-7.329,16.369-16.369v-53.472
		C177.702,238.513,170.373,231.184,161.333,231.184z"/>
	<path style="fill:#BBDDF7;" d="M282.735,103.506h-53.472c-9.04,0-16.369,7.329-16.369,16.369v53.472
		c0,9.04,7.329,16.369,16.369,16.369h53.472c9.04,0,16.369-7.329,16.369-16.369v-53.472
		C299.104,110.835,291.776,103.506,282.735,103.506z"/>
</g>
<path style="fill:#85C6F7;" d="M404.138,103.506h-53.472c-9.04,0-16.369,7.329-16.369,16.369v53.472
	c0,9.04,7.329,16.369,16.369,16.369h53.472c9.04,0,16.369-7.329,16.369-16.369v-53.472
	C420.507,110.835,413.178,103.506,404.138,103.506z"/>
<path style="fill:#BBDDF7;" d="M161.333,103.506h-53.472c-9.04,0-16.369,7.329-16.369,16.369v53.472
	c0,9.04,7.329,16.369,16.369,16.369h53.472c9.04,0,16.369-7.329,16.369-16.369v-53.472
	C177.702,110.835,170.373,103.506,161.333,103.506z"/>
<path style="fill:#57565C;" d="M472.956,403.99H253.489V512h219.467c9.04,0,16.369-7.329,16.369-16.369v-75.273
	C489.325,411.317,481.996,403.99,472.956,403.99z"/>
<g>
	<path style="fill:#85C6F7;" d="M282.735,231.184h-27.46v86.21h27.46c9.04,0,16.369-7.329,16.369-16.369v-53.472
		C299.104,238.513,291.776,231.184,282.735,231.184z"/>
	<path style="fill:#85C6F7;" d="M282.735,103.506h-27.46v86.21h27.46c9.04,0,16.369-7.329,16.369-16.369v-53.472
		C299.104,110.835,291.776,103.506,282.735,103.506z"/>
</g>
<path style="fill:#3E3E42;" d="M255.731,457.994V512h217.224c9.04,0,16.369-7.329,16.369-16.369v-37.636H255.731V457.994z"/>
<path style="fill:#57565C;" d="M251.798,457.994H22.675v37.636c0,9.041,7.329,16.369,16.369,16.369h212.755V457.994z"/>
<path style="fill:#4B4A4F;" d="M321.475,511.325v-141.5c0-9.04-7.329-16.369-16.369-16.369h-98.213
	c-9.04,0-16.369,7.329-16.369,16.369v141.5c0,0.228,0.025,0.449,0.035,0.675h130.883
	C321.451,511.774,321.475,511.553,321.475,511.325z"/>
<rect x="217.801" y="380.684" style="fill:#7E4F1F;" width="76.385" height="131.316"/>
<rect x="217.801" y="380.684" style="fill:#5E3C16;" width="76.385" height="17.479"/>
<path style="fill:#ACACB2;" d="M458.806,72.63H52.076c-6.48,0-11.733-5.253-11.733-11.733V11.733C40.343,5.253,45.596,0,52.076,0
	h406.731c6.48,0,11.733,5.253,11.733,11.733v49.165C470.539,67.378,465.286,72.63,458.806,72.63z"/>
<rect x="52.075" y="72.63" style="fill:#727178;" width="409.077" height="18.996"/>
<g>
	<path style="fill:#C6C5CA;" d="M181.955,200.892H90.318c-4.115,0-7.451-3.335-7.451-7.451v-14.156c0-4.115,3.335-7.451,7.451-7.451
		h91.637c4.115,0,7.451,3.335,7.451,7.451v14.156C189.406,197.557,186.071,200.892,181.955,200.892z"/>
	<path style="fill:#C6C5CA;" d="M181.955,331.923H90.318c-4.115,0-7.451-3.335-7.451-7.451v-14.156c0-4.115,3.335-7.451,7.451-7.451
		h91.637c4.115,0,7.451,3.335,7.451,7.451v14.156C189.406,328.587,186.071,331.923,181.955,331.923z"/>
</g>
<g>
	<path style="fill:#8A8A91;" d="M301.095,331.923h-91.637c-4.115,0-7.451-3.335-7.451-7.451v-14.156
		c0-4.115,3.335-7.451,7.451-7.451h91.637c4.115,0,7.451,3.335,7.451,7.451v14.156C308.546,328.587,305.209,331.923,301.095,331.923
		z"/>
	<path style="fill:#8A8A91;" d="M423.222,200.892h-91.637c-4.115,0-7.451-3.335-7.451-7.451v-14.156
		c0-4.115,3.335-7.451,7.451-7.451h91.637c4.115,0,7.451,3.335,7.451,7.451v14.156C430.672,197.557,427.336,200.892,423.222,200.892
		z"/>
	<path style="fill:#8A8A91;" d="M423.222,331.923h-91.637c-4.115,0-7.451-3.335-7.451-7.451v-14.156
		c0-4.115,3.335-7.451,7.451-7.451h91.637c4.115,0,7.451,3.335,7.451,7.451v14.156C430.672,328.587,427.336,331.923,423.222,331.923
		z"/>
	<path style="fill:#8A8A91;" d="M301.095,200.892h-91.637c-4.115,0-7.451-3.335-7.451-7.451v-14.156
		c0-4.115,3.335-7.451,7.451-7.451h91.637c4.115,0,7.451,3.335,7.451,7.451v14.156C308.546,197.557,305.209,200.892,301.095,200.892
		z"/>
</g>
<g>
	<path style="fill:#C6C5CA;" d="M255.276,171.835h-45.819c-4.115,0-7.451,3.335-7.451,7.451v14.156c0,4.115,3.335,7.451,7.451,7.451
		h45.819V171.835z"/>
	<path style="fill:#C6C5CA;" d="M255.276,302.865h-45.819c-4.115,0-7.451,3.335-7.451,7.451v14.156c0,4.115,3.335,7.451,7.451,7.451
		h45.819V302.865z"/>
</g>
<g>
</g>
<g>
</g>
<g>
</g>
<g>
</g>
<g>
</g>
<g>
</g>
<g>
</g>
<g>
</g>
<g>
</g>
<g>
</g>
<g>
</g>
<g>
</g>
<g>
</g>
<g>
</g>
<g>
</g>
</svg>
